<svg width="2716" height="801" viewBox="0 0 2716 801" fill="none" xmlns="http://www.w3.org/2000/svg">
<path d="M369.945 8.39486C388.537 -2.36558 411.463 -2.36559 430.055 8.39485L723.393 178.169C741.926 188.895 753.338 208.685 753.338 230.099V569.901C753.338 591.315 741.927 611.105 723.393 621.831L430.055 791.605C411.463 802.366 388.537 802.366 369.945 791.605L76.6065 621.831C58.0735 611.105 46.6616 591.315 46.6616 569.901V230.099C46.6616 208.685 58.0735 188.895 76.6065 178.169L369.945 8.39486Z" fill="#444444"/>
<mask id="mask0_102_135" style="mask-type:alpha" maskUnits="userSpaceOnUse" x="46" y="0" width="708" height="800">
<path d="M369.945 8.39486C388.537 -2.36558 411.463 -2.36559 430.055 8.39485L723.393 178.169C741.926 188.895 753.338 208.685 753.338 230.099V569.901C753.338 591.315 741.927 611.105 723.393 621.831L430.055 791.605C411.463 802.366 388.537 802.366 369.945 791.605L76.6065 621.831C58.0735 611.105 46.6616 591.315 46.6616 569.901V230.099C46.6616 208.685 58.0735 188.895 76.6065 178.169L369.945 8.39486Z" fill="#659AD2"/>
</mask>
<g mask="url(#mask0_102_135)">
<rect x="744.866" y="198.348" width="400" height="800" transform="rotate(59.5604 744.866 198.348)" fill="#666666"/>
<mask id="mask1_102_135" style="mask-type:alpha" maskUnits="userSpaceOnUse" x="55" y="198" width="893" height="751">
<rect x="744.865" y="198.348" width="400" height="800" transform="rotate(59.5604 744.865 198.348)" fill="#004482"/>
</mask>
<g mask="url(#mask1_102_135)">
<rect x="746.743" y="600.423" width="400" height="800" transform="rotate(119.905 746.743 600.423)" fill="#DD0000"/>
</g>
</g>
<path d="M226.232 385.4C226.232 316.6 240.232 262.4 268.232 222.8C296.232 183.2 340.232 163.4 400.232 163.4C460.232 163.4 504.232 183.2 532.232 222.8C560.632 262.4 574.832 316.6 574.832 385.4C574.832 455 560.832 509.6 532.832 549.2C504.832 588.8 460.632 608.6 400.232 608.6C339.832 608.6 295.632 588.8 267.632 549.2C240.032 509.6 226.232 455 226.232 385.4ZM458.432 385.4C458.432 349.4 454.632 322 447.032 303.2C439.432 284 423.832 274.4 400.232 274.4C376.632 274.4 361.032 284 353.432 303.2C345.832 322 342.032 349.4 342.032 385.4C342.032 422.2 345.632 450.2 352.832 469.4C360.432 488.2 376.232 497.6 400.232 497.6C424.232 497.6 439.832 488.2 447.032 469.4C454.632 450.2 458.432 422.2 458.432 385.4Z" fill="#EEEEEE"/>
<path d="M1313.62 329C1313.62 354.6 1307.62 378 1295.62 399.2C1284.02 420 1266.22 436.8 1242.22 449.6C1218.62 462 1189.62 468.2 1155.22 468.2H1097.02V611H979.42V188H1155.22C1189.22 188 1218.02 194 1241.62 206C1265.62 218 1283.62 234.6 1295.62 255.8C1307.62 277 1313.62 301.4 1313.62 329ZM1143.82 374.6C1177.02 374.6 1193.62 359.4 1193.62 329C1193.62 298.2 1177.02 282.8 1143.82 282.8H1097.02V374.6H1143.82Z" fill="#EEEEEE"/>
<path d="M1556.47 615.2C1522.87 615.2 1492.67 608.2 1465.87 594.2C1439.47 580.2 1418.67 560.2 1403.47 534.2C1388.27 508.2 1380.67 477.6 1380.67 442.4C1380.67 407.6 1388.27 377.2 1403.47 351.2C1419.07 325.2 1440.07 305.2 1466.47 291.2C1493.27 277.2 1523.47 270.2 1557.07 270.2C1590.67 270.2 1620.67 277.2 1647.07 291.2C1673.87 305.2 1694.87 325.2 1710.07 351.2C1725.67 377.2 1733.47 407.6 1733.47 442.4C1733.47 477.2 1725.67 507.8 1710.07 534.2C1694.87 560.2 1673.87 580.2 1647.07 594.2C1620.27 608.2 1590.07 615.2 1556.47 615.2ZM1556.47 513.2C1572.87 513.2 1586.47 507.2 1597.27 495.2C1608.47 482.8 1614.07 465.2 1614.07 442.4C1614.07 419.6 1608.47 402.2 1597.27 390.2C1586.47 378.2 1573.07 372.2 1557.07 372.2C1541.07 372.2 1527.67 378.2 1516.87 390.2C1506.07 402.2 1500.67 419.6 1500.67 442.4C1500.67 465.6 1505.87 483.2 1516.27 495.2C1526.67 507.2 1540.07 513.2 1556.47 513.2Z" fill="#EEEEEE"/>
<path d="M1937.91 333.8C1951.11 314.6 1967.11 299.4 1985.91 288.2C2004.71 277 2024.91 271.4 2046.51 271.4V396.8H2013.51C1987.91 396.8 1968.91 401.8 1956.51 411.8C1944.11 421.8 1937.91 439.2 1937.91 464V611H1820.31V274.4H1937.91V333.8Z" fill="#EEEEEE"/>
<path d="M2326.27 510.8V611H2275.27C2189.27 611 2146.27 568.4 2146.27 483.2V372.2H2104.87V274.4H2146.27V192.8H2264.47V274.4H2325.67V372.2H2264.47V485C2264.47 494.2 2266.47 500.8 2270.47 504.8C2274.87 508.8 2282.07 510.8 2292.07 510.8H2326.27Z" fill="#EEEEEE"/>
<path d="M2478.61 243.2C2457.81 243.2 2441.01 237.6 2428.21 226.4C2415.81 214.8 2409.61 200.4 2409.61 183.2C2409.61 165.6 2415.81 151 2428.21 139.4C2441.01 127.8 2457.81 122 2478.61 122C2499.01 122 2515.41 127.8 2527.81 139.4C2540.61 151 2547.01 165.6 2547.01 183.2C2547.01 200.4 2540.61 214.8 2527.81 226.4C2515.41 237.6 2499.01 243.2 2478.61 243.2ZM2536.81 274.4V611H2419.21V274.4H2536.81Z" fill="#EEEEEE"/>
<path d="M671.9 479C669.9 479 668.2 478.3 666.8 476.9C665.6 475.5 665 473.9 665 472.1C665 471.5 665.1 470.8 665.3 470C665.5 469.2 665.9 468.4 666.5 467.6L715.7 398.6L671.3 334.4C670.9 333.8 670.5 333.1 670.1 332.3C669.9 331.5 669.8 330.7 669.8 329.9C669.8 328.1 670.5 326.5 671.9 325.1C673.3 323.7 674.9 323 676.7 323H722.6C725.4 323 727.5 323.7 728.9 325.1C730.3 326.3 731.3 327.4 731.9 328.4L754.4 361.1L776.9 328.4C777.7 327.4 778.7 326.3 779.9 325.1C781.3 323.7 783.4 323 786.2 323H830C831.8 323 833.4 323.7 834.8 325.1C836.2 326.5 836.9 328 836.9 329.6C836.9 330.6 836.8 331.5 836.6 332.3C836.4 333.1 836 333.8 835.4 334.4L790.1 398.6L840.2 467.6C840.8 468.4 841.2 469.2 841.4 470C841.6 470.8 841.7 471.5 841.7 472.1C841.7 473.9 841 475.5 839.6 476.9C838.2 478.3 836.6 479 834.8 479H786.8C784.2 479 782.3 478.4 781.1 477.2C779.9 476 778.9 474.9 778.1 473.9L753.2 439.1L727.4 473.9C726.8 474.9 725.8 476 724.4 477.2C723.2 478.4 721.3 479 718.7 479H671.9Z" fill="#EEEEEE"/>
</svg>
