<svg width="550" height="550" viewBox="0 0 550 550" fill="none" xmlns="http://www.w3.org/2000/svg">
<path d="M250.441 222.344C257.61 218.584 264.987 228.015 259.15 233.478L157.908 328.243C155.107 330.865 155.205 335.308 158.125 338.082L307.914 480.386C314.102 486.265 306.805 495.398 299.475 490.947L49.9046 339.401C45.2014 336.545 45.1714 329.999 49.8503 327.545L250.441 222.344Z" fill="#666666"/>
<circle cx="257.3" cy="166.269" r="30" fill="#666666"/>
<path d="M250.863 365.61C243.7 369.591 236.122 359.873 242.116 354.392L391.206 218.058C393.999 215.504 393.996 211.101 391.198 208.253L236.632 50.9478C230.722 44.9338 237.981 36.0758 245.173 40.5247L514.492 207.129C519.109 209.985 519.217 216.449 514.691 218.965L250.863 365.61Z" fill="#E70000"/>
</svg>
