<svg width="188" height="189" viewBox="0 0 188 189" fill="none" xmlns="http://www.w3.org/2000/svg">
<rect x="2.5" y="2.65802" width="183" height="183" rx="91.5" fill="black"/>
<path d="M85.1707 82.6801C86.9577 81.7996 88.7964 84.0081 87.3415 85.2876L62.1065 107.48C61.4084 108.094 61.4328 109.134 62.1606 109.784L99.4962 143.109C101.039 144.486 99.2199 146.625 97.3929 145.582L35.1862 110.093C34.0139 109.424 34.0064 107.891 35.1726 107.316L85.1707 82.6801Z" fill="#666666"/>
<path d="M85.2761 116.231C83.4906 117.163 81.6018 114.887 83.0957 113.604L120.257 81.6764C120.953 81.0782 120.953 80.047 120.255 79.3803L81.7288 42.5419C80.2558 41.1336 82.0651 39.0591 83.8577 40.101L150.987 79.1171C152.138 79.7858 152.165 81.2996 151.036 81.8887L85.2761 116.231Z" fill="#E70000"/>
<ellipse cx="88" cy="69.8892" rx="8" ry="7.73122" fill="#666666"/>
<rect x="2.5" y="2.65802" width="183" height="183" rx="91.5" stroke="#E70000" stroke-width="5"/>
</svg>
