<svg width="30" height="38" viewBox="0 0 30 38" fill="none" xmlns="http://www.w3.org/2000/svg">
<path fill-rule="evenodd" clip-rule="evenodd" d="M5.981 18.4271C8.58905 22.9443 14.3653 24.4921 18.8826 21.884C23.3998 19.276 24.9476 13.4997 22.3395 8.98247C19.7315 4.46519 13.9552 2.91745 9.43796 5.52551C4.92068 8.13356 3.37294 13.9098 5.981 18.4271ZM2.70929 20.316C6.36057 26.6402 14.4473 28.807 20.7715 25.1557C27.0957 21.5045 29.2625 13.4177 25.6112 7.09355C21.9599 0.769357 13.8732 -1.39747 7.54904 2.2538C1.22485 5.90508 -0.94198 13.9918 2.70929 20.316Z" fill="#000"/>
<path d="M25.2308 37.4129L16.9195 23.0174L20.8456 20.7507L29.1568 35.1462L25.2308 37.4129Z" fill="#000"/>
</svg>
