<svg width="900" height="300" viewBox="0 0 900 300" fill="none" xmlns="http://www.w3.org/2000/svg">
<g clip-path="url(#clip0_115_280)">
<rect width="900" height="300" fill="#111111"/>
<path d="M774 206H800V307" stroke="white" stroke-opacity="0.15" stroke-width="4"/>
<path d="M776 98H788V-8" stroke="white" stroke-opacity="0.15" stroke-width="4"/>
<path d="M774 73H800V152H774" stroke="white" stroke-opacity="0.15" stroke-width="4"/>
<path d="M772 130H788V187H772" stroke="white" stroke-opacity="0.15" stroke-width="4"/>
<path d="M682.5 198H657V177H588" stroke="white" stroke-opacity="0.15" stroke-width="4"/>
<path d="M590 160H655V145.5H690" stroke="white" stroke-opacity="0.15" stroke-width="4"/>
<path d="M590 145H641.911V83H688" stroke="white" stroke-opacity="0.15" stroke-width="4"/>
<rect x="736" y="22" width="100" height="100" fill="white" fill-opacity="0.1"/>
<rect y="85" width="100" height="100" fill="white" fill-opacity="0.15"/>
<rect x="648" y="168" width="100" height="100" fill="white" fill-opacity="0.15"/>
<rect x="513" y="-22" width="100" height="100" fill="white" fill-opacity="0.15"/>
<rect x="115" y="200" width="100" height="100" fill="white" fill-opacity="0.15"/>
<rect x="411" y="108" width="100" height="100" fill="white" fill-opacity="0.15"/>
<rect y="200" width="100" height="100" fill="white" fill-opacity="0.15"/>
<rect x="828" y="231" width="100" height="100" fill="white" fill-opacity="0.15"/>
<path d="M479.213 169.24C480.093 169.24 480.813 169.173 481.373 169.04C481.96 168.88 482.426 168.68 482.773 168.44C483.12 168.173 483.36 167.867 483.493 167.52C483.626 167.173 483.693 166.787 483.693 166.36C483.693 165.453 483.266 164.707 482.413 164.12C481.56 163.507 480.093 162.853 478.013 162.16C477.106 161.84 476.2 161.48 475.293 161.08C474.386 160.653 473.573 160.133 472.853 159.52C472.133 158.88 471.546 158.12 471.093 157.24C470.64 156.333 470.413 155.24 470.413 153.96C470.413 152.68 470.653 151.533 471.133 150.52C471.613 149.48 472.293 148.6 473.173 147.88C474.053 147.16 475.12 146.613 476.373 146.24C477.626 145.84 479.04 145.64 480.613 145.64C482.48 145.64 484.093 145.84 485.453 146.24C486.813 146.64 487.933 147.08 488.813 147.56L487.013 152.48C486.24 152.08 485.373 151.733 484.413 151.44C483.48 151.12 482.346 150.96 481.013 150.96C479.52 150.96 478.44 151.173 477.773 151.6C477.133 152 476.813 152.627 476.813 153.48C476.813 153.987 476.933 154.413 477.173 154.76C477.413 155.107 477.746 155.427 478.173 155.72C478.626 155.987 479.133 156.24 479.693 156.48C480.28 156.693 480.92 156.92 481.613 157.16C483.053 157.693 484.306 158.227 485.373 158.76C486.44 159.267 487.32 159.867 488.013 160.56C488.733 161.253 489.266 162.067 489.613 163C489.96 163.933 490.133 165.067 490.133 166.4C490.133 168.987 489.226 171 487.413 172.44C485.6 173.853 482.866 174.56 479.213 174.56C477.986 174.56 476.88 174.48 475.893 174.32C474.906 174.187 474.026 174.013 473.253 173.8C472.506 173.587 471.853 173.36 471.293 173.12C470.76 172.88 470.306 172.653 469.933 172.44L471.693 167.48C472.52 167.933 473.533 168.347 474.733 168.72C475.96 169.067 477.453 169.24 479.213 169.24ZM494.334 147.72L500.294 146.76V152.96H507.454V157.92H500.294V165.32C500.294 166.573 500.508 167.573 500.934 168.32C501.388 169.067 502.281 169.44 503.614 169.44C504.254 169.44 504.908 169.387 505.574 169.28C506.268 169.147 506.894 168.973 507.454 168.76L508.294 173.4C507.574 173.693 506.774 173.947 505.894 174.16C505.014 174.373 503.934 174.48 502.654 174.48C501.028 174.48 499.681 174.267 498.614 173.84C497.548 173.387 496.694 172.773 496.054 172C495.414 171.2 494.961 170.24 494.694 169.12C494.454 168 494.334 166.76 494.334 165.4V147.72ZM519.567 169.84C520.153 169.84 520.713 169.827 521.247 169.8C521.78 169.773 522.207 169.733 522.527 169.68V165.16C522.287 165.107 521.927 165.053 521.447 165C520.967 164.947 520.527 164.92 520.127 164.92C519.567 164.92 519.033 164.96 518.527 165.04C518.047 165.093 517.62 165.213 517.247 165.4C516.873 165.587 516.58 165.84 516.367 166.16C516.153 166.48 516.047 166.88 516.047 167.36C516.047 168.293 516.353 168.947 516.967 169.32C517.607 169.667 518.473 169.84 519.567 169.84ZM519.087 152.4C520.847 152.4 522.313 152.6 523.487 153C524.66 153.4 525.593 153.973 526.287 154.72C527.007 155.467 527.513 156.373 527.807 157.44C528.1 158.507 528.247 159.693 528.247 161V173.4C527.393 173.587 526.207 173.8 524.687 174.04C523.167 174.307 521.327 174.44 519.167 174.44C517.807 174.44 516.567 174.32 515.447 174.08C514.353 173.84 513.407 173.453 512.607 172.92C511.807 172.36 511.193 171.64 510.767 170.76C510.34 169.88 510.127 168.8 510.127 167.52C510.127 166.293 510.367 165.253 510.847 164.4C511.353 163.547 512.02 162.867 512.847 162.36C513.673 161.853 514.62 161.493 515.687 161.28C516.753 161.04 517.86 160.92 519.007 160.92C519.78 160.92 520.46 160.96 521.047 161.04C521.66 161.093 522.153 161.173 522.527 161.28V160.72C522.527 159.707 522.22 158.893 521.607 158.28C520.993 157.667 519.927 157.36 518.407 157.36C517.393 157.36 516.393 157.44 515.407 157.6C514.42 157.733 513.567 157.933 512.847 158.2L512.087 153.4C512.433 153.293 512.86 153.187 513.367 153.08C513.9 152.947 514.473 152.84 515.087 152.76C515.7 152.653 516.34 152.573 517.007 152.52C517.7 152.44 518.393 152.4 519.087 152.4ZM532.636 163.48C532.636 161.96 532.876 160.533 533.356 159.2C533.863 157.84 534.583 156.667 535.516 155.68C536.449 154.667 537.583 153.867 538.916 153.28C540.249 152.693 541.769 152.4 543.476 152.4C544.596 152.4 545.623 152.507 546.556 152.72C547.489 152.907 548.396 153.187 549.276 153.56L548.036 158.32C547.476 158.107 546.863 157.92 546.196 157.76C545.529 157.6 544.783 157.52 543.956 157.52C542.196 157.52 540.876 158.067 539.996 159.16C539.143 160.253 538.716 161.693 538.716 163.48C538.716 165.373 539.116 166.84 539.916 167.88C540.743 168.92 542.169 169.44 544.196 169.44C544.916 169.44 545.689 169.373 546.516 169.24C547.343 169.107 548.103 168.893 548.796 168.6L549.636 173.48C548.943 173.773 548.076 174.027 547.036 174.24C545.996 174.453 544.849 174.56 543.596 174.56C541.676 174.56 540.023 174.28 538.636 173.72C537.249 173.133 536.103 172.347 535.196 171.36C534.316 170.373 533.663 169.213 533.236 167.88C532.836 166.52 532.636 165.053 532.636 163.48ZM559.596 160.56C560.183 159.92 560.783 159.253 561.396 158.56C562.036 157.867 562.649 157.187 563.236 156.52C563.823 155.827 564.369 155.173 564.876 154.56C565.409 153.947 565.863 153.413 566.236 152.96H573.316C571.903 154.587 570.516 156.147 569.156 157.64C567.823 159.107 566.356 160.627 564.756 162.2C565.556 162.92 566.383 163.787 567.236 164.8C568.089 165.787 568.916 166.813 569.716 167.88C570.516 168.947 571.249 170.013 571.916 171.08C572.583 172.147 573.143 173.12 573.596 174H566.756C566.329 173.307 565.836 172.547 565.276 171.72C564.743 170.867 564.169 170.027 563.556 169.2C562.943 168.347 562.289 167.533 561.596 166.76C560.929 165.987 560.263 165.333 559.596 164.8V174H553.636V143.92L559.596 142.96V160.56Z" fill="#EEEEEE"/>
<rect x="264" y="134" width="324" height="51" stroke="#EEEEEE" stroke-width="4"/>
<g filter="url(#filter0_d_115_280)">
<rect width="517" height="69" transform="translate(66 43)" fill="#EEEEEE"/>
<path d="M133.307 59.885C133.967 61.095 134.719 62.5983 135.562 64.395C136.442 66.155 137.34 68.08 138.257 70.17C139.21 72.2233 140.145 74.3317 141.062 76.495C141.979 78.6583 142.84 80.6933 143.647 82.6C144.454 80.6933 145.315 78.6583 146.232 76.495C147.149 74.3317 148.065 72.2233 148.982 70.17C149.935 68.08 150.834 66.155 151.677 64.395C152.557 62.5983 153.327 61.095 153.987 59.885H161.797C162.164 62.415 162.494 65.2567 162.787 68.41C163.117 71.5267 163.392 74.79 163.612 78.2C163.869 81.5733 164.089 84.965 164.272 88.375C164.492 91.785 164.675 94.9933 164.822 98H156.462C156.352 94.2967 156.205 90.2633 156.022 85.9C155.839 81.5367 155.564 77.1367 155.197 72.7C154.537 74.24 153.804 75.945 152.997 77.815C152.19 79.685 151.384 81.555 150.577 83.425C149.807 85.295 149.055 87.0917 148.322 88.815C147.589 90.5017 146.965 91.95 146.452 93.16H140.457C139.944 91.95 139.32 90.5017 138.587 88.815C137.854 87.0917 137.084 85.295 136.277 83.425C135.507 81.555 134.719 79.685 133.912 77.815C133.105 75.945 132.372 74.24 131.712 72.7C131.345 77.1367 131.07 81.5367 130.887 85.9C130.704 90.2633 130.557 94.2967 130.447 98H122.087C122.234 94.9933 122.399 91.785 122.582 88.375C122.802 84.965 123.022 81.5733 123.242 78.2C123.499 74.79 123.774 71.5267 124.067 68.41C124.397 65.2567 124.745 62.415 125.112 59.885H133.307ZM170.622 83.755C170.622 81.1883 171.007 78.9517 171.777 77.045C172.584 75.1017 173.629 73.4883 174.912 72.205C176.196 70.9217 177.662 69.95 179.312 69.29C180.999 68.63 182.722 68.3 184.482 68.3C188.589 68.3 191.834 69.565 194.217 72.095C196.601 74.5883 197.792 78.2733 197.792 83.15C197.792 83.6267 197.774 84.1583 197.737 84.745C197.701 85.295 197.664 85.79 197.627 86.23H179.037C179.221 87.9167 180.009 89.255 181.402 90.245C182.796 91.235 184.666 91.73 187.012 91.73C188.516 91.73 189.982 91.6017 191.412 91.345C192.879 91.0517 194.071 90.7033 194.987 90.3L196.087 96.955C195.647 97.175 195.061 97.395 194.327 97.615C193.594 97.835 192.769 98.0183 191.852 98.165C190.972 98.3483 190.019 98.495 188.992 98.605C187.966 98.715 186.939 98.77 185.912 98.77C183.309 98.77 181.036 98.385 179.092 97.615C177.186 96.845 175.591 95.8 174.307 94.48C173.061 93.1233 172.126 91.5283 171.502 89.695C170.916 87.8617 170.622 85.8817 170.622 83.755ZM189.872 80.62C189.836 79.9233 189.707 79.245 189.487 78.585C189.304 77.925 188.992 77.3383 188.552 76.825C188.149 76.3117 187.617 75.89 186.957 75.56C186.334 75.23 185.546 75.065 184.592 75.065C183.676 75.065 182.887 75.23 182.227 75.56C181.567 75.8533 181.017 76.2567 180.577 76.77C180.137 77.2833 179.789 77.8883 179.532 78.585C179.312 79.245 179.147 79.9233 179.037 80.62H189.872ZM220.012 82.655C220.012 80.015 219.663 78.145 218.967 77.045C218.307 75.945 217.152 75.395 215.502 75.395C214.988 75.395 214.457 75.4317 213.907 75.505C213.357 75.5417 212.825 75.5967 212.312 75.67V98H204.117V70.06C204.813 69.8767 205.62 69.6933 206.537 69.51C207.49 69.29 208.48 69.1067 209.507 68.96C210.57 68.7767 211.652 68.6483 212.752 68.575C213.852 68.465 214.933 68.41 215.997 68.41C218.087 68.41 219.773 68.685 221.057 69.235C222.377 69.7483 223.458 70.3717 224.302 71.105C225.475 70.2617 226.813 69.6017 228.317 69.125C229.857 68.6483 231.268 68.41 232.552 68.41C234.862 68.41 236.75 68.74 238.217 69.4C239.72 70.0233 240.912 70.9217 241.792 72.095C242.672 73.2683 243.277 74.6617 243.607 76.275C243.937 77.8883 244.102 79.685 244.102 81.665V98H235.907V82.655C235.907 80.015 235.558 78.145 234.862 77.045C234.202 75.945 233.047 75.395 231.397 75.395C230.957 75.395 230.333 75.505 229.527 75.725C228.757 75.945 228.115 76.22 227.602 76.55C227.858 77.3933 228.023 78.2917 228.097 79.245C228.17 80.1617 228.207 81.1517 228.207 82.215V98H220.012V82.655ZM278.603 83.48C278.603 85.7533 278.273 87.8433 277.613 89.75C276.953 91.62 276 93.2333 274.753 94.59C273.507 95.91 272.003 96.9367 270.243 97.67C268.52 98.4033 266.577 98.77 264.413 98.77C262.287 98.77 260.343 98.4033 258.583 97.67C256.86 96.9367 255.375 95.91 254.128 94.59C252.882 93.2333 251.91 91.62 251.213 89.75C250.517 87.8433 250.168 85.7533 250.168 83.48C250.168 81.2067 250.517 79.135 251.213 77.265C251.947 75.395 252.937 73.8 254.183 72.48C255.467 71.16 256.97 70.1333 258.693 69.4C260.453 68.6667 262.36 68.3 264.413 68.3C266.503 68.3 268.41 68.6667 270.133 69.4C271.893 70.1333 273.397 71.16 274.643 72.48C275.89 73.8 276.862 75.395 277.558 77.265C278.255 79.135 278.603 81.2067 278.603 83.48ZM270.243 83.48C270.243 80.95 269.73 78.97 268.703 77.54C267.713 76.0733 266.283 75.34 264.413 75.34C262.543 75.34 261.095 76.0733 260.068 77.54C259.042 78.97 258.528 80.95 258.528 83.48C258.528 86.01 259.042 88.0267 260.068 89.53C261.095 90.9967 262.543 91.73 264.413 91.73C266.283 91.73 267.713 90.9967 268.703 89.53C269.73 88.0267 270.243 86.01 270.243 83.48ZM302.387 76.33C301.653 76.1467 300.792 75.9633 299.802 75.78C298.812 75.56 297.748 75.45 296.612 75.45C296.098 75.45 295.475 75.505 294.742 75.615C294.045 75.6883 293.513 75.78 293.147 75.89V98H284.952V70.61C286.418 70.0967 288.142 69.62 290.122 69.18C292.138 68.7033 294.375 68.465 296.832 68.465C297.272 68.465 297.803 68.5017 298.427 68.575C299.05 68.6117 299.673 68.685 300.297 68.795C300.92 68.8683 301.543 68.9783 302.167 69.125C302.79 69.235 303.322 69.3817 303.762 69.565L302.387 76.33ZM335.558 69.07C333.908 74.6433 332.185 79.8683 330.388 84.745C328.592 89.6217 326.63 94.3517 324.503 98.935C323.733 100.585 322.963 101.978 322.193 103.115C321.423 104.288 320.58 105.242 319.663 105.975C318.747 106.745 317.702 107.295 316.528 107.625C315.392 107.992 314.053 108.175 312.513 108.175C311.23 108.175 310.038 108.047 308.938 107.79C307.875 107.57 306.995 107.313 306.298 107.02L307.728 100.475C308.572 100.768 309.323 100.97 309.983 101.08C310.643 101.19 311.34 101.245 312.073 101.245C313.54 101.245 314.658 100.842 315.428 100.035C316.235 99.265 316.913 98.1833 317.463 96.79C315.593 93.1233 313.723 89.0167 311.853 84.47C309.983 79.8867 308.223 74.7533 306.573 69.07H315.263C315.63 70.5 316.052 72.0583 316.528 73.745C317.042 75.395 317.573 77.0817 318.123 78.805C318.673 80.4917 319.223 82.1417 319.773 83.755C320.36 85.3683 320.91 86.835 321.423 88.155C321.9 86.835 322.395 85.3683 322.908 83.755C323.422 82.1417 323.917 80.4917 324.393 78.805C324.907 77.0817 325.383 75.395 325.823 73.745C326.3 72.0583 326.722 70.5 327.088 69.07H335.558ZM379.179 90.63V98H353.714V59.885H362.294V90.63H379.179ZM395.855 92.28C396.662 92.28 397.432 92.2617 398.165 92.225C398.899 92.1883 399.485 92.1333 399.925 92.06V85.845C399.595 85.7717 399.1 85.6983 398.44 85.625C397.78 85.5517 397.175 85.515 396.625 85.515C395.855 85.515 395.122 85.57 394.425 85.68C393.765 85.7533 393.179 85.9183 392.665 86.175C392.152 86.4317 391.749 86.78 391.455 87.22C391.162 87.66 391.015 88.21 391.015 88.87C391.015 90.1533 391.437 91.0517 392.28 91.565C393.16 92.0417 394.352 92.28 395.855 92.28ZM395.195 68.3C397.615 68.3 399.632 68.575 401.245 69.125C402.859 69.675 404.142 70.4633 405.095 71.49C406.085 72.5167 406.782 73.7633 407.185 75.23C407.589 76.6967 407.79 78.3283 407.79 80.125V97.175C406.617 97.4317 404.985 97.725 402.895 98.055C400.805 98.4217 398.275 98.605 395.305 98.605C393.435 98.605 391.73 98.44 390.19 98.11C388.687 97.78 387.385 97.2483 386.285 96.515C385.185 95.745 384.342 94.755 383.755 93.545C383.169 92.335 382.875 90.85 382.875 89.09C382.875 87.4033 383.205 85.9733 383.865 84.8C384.562 83.6267 385.479 82.6917 386.615 81.995C387.752 81.2983 389.054 80.8033 390.52 80.51C391.987 80.18 393.509 80.015 395.085 80.015C396.149 80.015 397.084 80.07 397.89 80.18C398.734 80.2533 399.412 80.3633 399.925 80.51V79.74C399.925 78.3467 399.504 77.2283 398.66 76.385C397.817 75.5417 396.35 75.12 394.26 75.12C392.867 75.12 391.492 75.23 390.135 75.45C388.779 75.6333 387.605 75.9083 386.615 76.275L385.57 69.675C386.047 69.5283 386.634 69.3817 387.33 69.235C388.064 69.0517 388.852 68.905 389.695 68.795C390.539 68.6483 391.419 68.5383 392.335 68.465C393.289 68.355 394.242 68.3 395.195 68.3ZM440.187 69.07C438.537 74.6433 436.814 79.8683 435.017 84.745C433.221 89.6217 431.259 94.3517 429.132 98.935C428.362 100.585 427.592 101.978 426.822 103.115C426.052 104.288 425.209 105.242 424.292 105.975C423.376 106.745 422.331 107.295 421.157 107.625C420.021 107.992 418.682 108.175 417.142 108.175C415.859 108.175 414.667 108.047 413.567 107.79C412.504 107.57 411.624 107.313 410.927 107.02L412.357 100.475C413.201 100.768 413.952 100.97 414.612 101.08C415.272 101.19 415.969 101.245 416.702 101.245C418.169 101.245 419.287 100.842 420.057 100.035C420.864 99.265 421.542 98.1833 422.092 96.79C420.222 93.1233 418.352 89.0167 416.482 84.47C414.612 79.8867 412.852 74.7533 411.202 69.07H419.892C420.259 70.5 420.681 72.0583 421.157 73.745C421.671 75.395 422.202 77.0817 422.752 78.805C423.302 80.4917 423.852 82.1417 424.402 83.755C424.989 85.3683 425.539 86.835 426.052 88.155C426.529 86.835 427.024 85.3683 427.537 83.755C428.051 82.1417 428.546 80.4917 429.022 78.805C429.536 77.0817 430.012 75.395 430.452 73.745C430.929 72.0583 431.351 70.5 431.717 69.07H440.187ZM470.889 83.48C470.889 85.7533 470.559 87.8433 469.899 89.75C469.239 91.62 468.285 93.2333 467.039 94.59C465.792 95.91 464.289 96.9367 462.529 97.67C460.805 98.4033 458.862 98.77 456.699 98.77C454.572 98.77 452.629 98.4033 450.869 97.67C449.145 96.9367 447.66 95.91 446.414 94.59C445.167 93.2333 444.195 91.62 443.499 89.75C442.802 87.8433 442.454 85.7533 442.454 83.48C442.454 81.2067 442.802 79.135 443.499 77.265C444.232 75.395 445.222 73.8 446.469 72.48C447.752 71.16 449.255 70.1333 450.979 69.4C452.739 68.6667 454.645 68.3 456.699 68.3C458.789 68.3 460.695 68.6667 462.419 69.4C464.179 70.1333 465.682 71.16 466.929 72.48C468.175 73.8 469.147 75.395 469.844 77.265C470.54 79.135 470.889 81.2067 470.889 83.48ZM462.529 83.48C462.529 80.95 462.015 78.97 460.989 77.54C459.999 76.0733 458.569 75.34 456.699 75.34C454.829 75.34 453.38 76.0733 452.354 77.54C451.327 78.97 450.814 80.95 450.814 83.48C450.814 86.01 451.327 88.0267 452.354 89.53C453.38 90.9967 454.829 91.73 456.699 91.73C458.569 91.73 459.999 90.9967 460.989 89.53C462.015 88.0267 462.529 86.01 462.529 83.48ZM501.932 97.01C500.538 97.4133 498.742 97.78 496.542 98.11C494.342 98.4767 492.032 98.66 489.612 98.66C487.155 98.66 485.102 98.33 483.452 97.67C481.838 97.01 480.555 96.0933 479.602 94.92C478.648 93.71 477.97 92.28 477.567 90.63C477.163 88.98 476.962 87.165 476.962 85.185V69.07H485.157V84.195C485.157 86.835 485.505 88.7417 486.202 89.915C486.898 91.0883 488.2 91.675 490.107 91.675C490.693 91.675 491.317 91.6567 491.977 91.62C492.637 91.5467 493.223 91.4733 493.737 91.4V69.07H501.932V97.01ZM509.349 61.865L517.544 60.545V69.07H527.389V75.89H517.544V86.065C517.544 87.7883 517.838 89.1633 518.424 90.19C519.048 91.2167 520.276 91.73 522.109 91.73C522.989 91.73 523.888 91.6567 524.804 91.51C525.758 91.3267 526.619 91.0883 527.389 90.795L528.544 97.175C527.554 97.5783 526.454 97.9267 525.244 98.22C524.034 98.5133 522.549 98.66 520.789 98.66C518.553 98.66 516.701 98.3667 515.234 97.78C513.768 97.1567 512.594 96.3133 511.714 95.25C510.834 94.15 510.211 92.83 509.844 91.29C509.514 89.75 509.349 88.045 509.349 86.175V61.865Z" fill="#111111"/>
</g>
<rect x="60.5" y="37.5" width="528" height="80" stroke="#EEEEEE" stroke-width="3"/>
<path d="M684 55.75L728.064 30.3094L772.129 55.75L728.064 81.1906L684 55.75Z" fill="#00C42B" stroke="#111111" stroke-width="4"/>
<path d="M774.064 220.345L730 245.786V194.905L774.064 169.464V220.345Z" fill="#C80000" stroke="#111111" stroke-width="4"/>
<path d="M774.064 164.845L730 190.286V139.405L774.064 113.964V164.845Z" fill="#0074C8" stroke="#111111" stroke-width="4"/>
<path d="M774.064 109.345L730 134.786V83.9047L774.064 58.4641V109.345Z" fill="#00C82C" stroke="#111111" stroke-width="4"/>
<path d="M682 164.845V113.964L726.064 139.405V190.286L682 164.845Z" fill="#005492" stroke="#111111" stroke-width="4"/>
<path d="M682 220.345V169.464L726.064 194.905V245.786L682 220.345Z" fill="#930000" stroke="#111111" stroke-width="4"/>
<path d="M682 109.345V58.4641L726.064 83.9047V134.786L682 109.345Z" fill="#009120" stroke="#111111" stroke-width="4"/>
</g>
<defs>
<filter id="filter0_d_115_280" x="59" y="43" width="525" height="78" filterUnits="userSpaceOnUse" color-interpolation-filters="sRGB">
<feFlood flood-opacity="0" result="BackgroundImageFix"/>
<feColorMatrix in="SourceAlpha" type="matrix" values="0 0 0 0 0 0 0 0 0 0 0 0 0 0 0 0 0 0 127 0" result="hardAlpha"/>
<feOffset dx="-3" dy="5"/>
<feGaussianBlur stdDeviation="2"/>
<feComposite in2="hardAlpha" operator="out"/>
<feColorMatrix type="matrix" values="0 0 0 0 0 0 0 0 0 0 0 0 0 0 0 0 0 0 0.25 0"/>
<feBlend mode="normal" in2="BackgroundImageFix" result="effect1_dropShadow_115_280"/>
<feBlend mode="normal" in="SourceGraphic" in2="effect1_dropShadow_115_280" result="shape"/>
</filter>
<clipPath id="clip0_115_280">
<rect width="900" height="300" fill="white"/>
</clipPath>
</defs>
</svg>
